# xmcd
#
# Track frame offsets:
#	150
#	10852
#	22962
#	35867
#	46465
#	57925
#	68735
#	77907
#	91140
#	102302
#	113145
#	125427
#	137272
#	150417
#	161182
#	173050
#	186212
#	198852
#	209752
#	220927
#	234222
#	246827
#	256327
#	268235
#	281415
#	292677
#	306352
#
# Disc length: 4253 seconds
#
# Revision: 1
# Processed by: cddbd v1.5.2PL0 Copyright (c) Steve Scherf et al.
# Submitted via: EZCDAudioConverter 7.0.6.1
#
DISCID=7c109b1b
DTITLE=Various Artist - The Complete Stax and Volt Singles 4/9
DYEAR=2016
DGENRE=
TTITLE0=Rufus Thomas - Jump Back
TTITLE1=Otis Redding - Chained And Bound
TTITLE2=Barbara and The Browns - In My Heart
TTITLE3=Johnny Jenkins - Spunky
TTITLE4=Wendy Rene - Bar‐B‐Q
TTITLE5=The Mad Lads - The Sidewalk Surf
TTITLE6=Booker T. and The MGs - Can't Be Still
TTITLE7=Carla Thomas - A Woman's Love
TTITLE8=The Baracudas - Yank Me (Doodle)
TTITLE9=Otis Redding - That's How Strong My Love Is
TTITLE10=Otis Redding - Mr. Pitiful
TTITLE11=The Del-Rays - Don't Let Her Be Your Baby
TTITLE12=David Porter - Can't See You When I Want To
TTITLE13=Barbara and The Browns - My Lover
TTITLE14=The Admirals - Got You On My Mind
TTITLE15=Carla Thomas - How Do You Quit (Someone You Love)
TTITLE16=Gorgeous George - Biggest Fool In Town
TTITLE17=The Mar‐Keys - Banana Juice
TTITLE18=Rufus Thomas - Little Sally Walker
TTITLE19=Sam and Dave - A Place Nobody Can Find
TTITLE20=Sam and Dave - Goodnight Baby
TTITLE21=Booker T. and The MGs - Boot‐Leg
TTITLE22=Booker T. and The MGs - Outrage
TTITLE23=Otis Redding - I've Been Loving You Too Long (To Stop Now)
TTITLE24=Otis Redding - I'm Depending On You
TTITLE25=The Astors - Candy
TTITLE26=Wendy Rene - Give You What I Got
EXTD=
EXTT0=
EXTT1=
EXTT2=
EXTT3=
EXTT4=
EXTT5=
EXTT6=
EXTT7=
EXTT8=
EXTT9=
EXTT10=
EXTT11=
EXTT12=
EXTT13=
EXTT14=
EXTT15=
EXTT16=
EXTT17=
EXTT18=
EXTT19=
EXTT20=
EXTT21=
EXTT22=
EXTT23=
EXTT24=
EXTT25=
EXTT26=
PLAYORDER=
